<?xml version="1.0" encoding="UTF-8"?>
<svg version="1.1" xmlns="http://www.w3.org/2000/svg" width="512" height="512">
<path d="M0 0 C3.99616549 1.72510796 7.69162159 3.91659167 11.4375 6.125 C12.52772461 6.75229004 13.61794922 7.37958008 14.74121094 8.02587891 C18.169219 10.00312083 21.5846422 12.001004 25 14 C27.17245053 15.25646539 29.34561002 16.51170591 31.51953125 17.765625 C61.57102787 35.14205575 61.57102787 35.14205575 63 38 C63.4375 41.3125 63.4375 41.3125 63 45 C57.69386169 50.39906543 50.80102742 53.70807409 44.25 57.375 C42.38177725 58.429484 40.51474573 59.48605778 38.64770508 60.54263306 C37.36670122 61.26729434 36.08528459 61.99122643 34.8034668 62.71444702 C26.89157355 67.18077005 19.03614377 71.74435653 11.17675781 76.30224609 C10.15936523 76.89086426 9.14197266 77.47948242 8.09375 78.0859375 C6.75860352 78.8601001 6.75860352 78.8601001 5.39648438 79.64990234 C4.60564453 80.09543457 3.81480469 80.5409668 3 81 C2.30841797 81.39268066 1.61683594 81.78536133 0.90429688 82.18994141 C-2.27294881 83.54149284 -4.73648392 82.83071318 -8 82 C-10.03419245 80.1990865 -10.90330139 78.79315042 -11.23413086 76.07958984 C-11.29552543 73.79550793 -11.26134904 71.5336395 -11.1875 69.25 C-11.17396484 68.45722656 -11.16042969 67.66445312 -11.14648438 66.84765625 C-11.11125223 64.89814436 -11.05744821 62.94898374 -11 61 C-31.42802567 61.06060248 -51.85592056 61.13815038 -72.28380394 61.23571491 C-81.76943219 61.28062627 -91.25502329 61.32005165 -100.74072266 61.34643555 C-109.01118839 61.3694534 -117.28153609 61.40289364 -125.55190814 61.44870156 C-129.92853761 61.47258278 -134.30505054 61.49134492 -138.68174362 61.49761391 C-142.80713031 61.50368792 -146.93221902 61.52377081 -151.05749512 61.55427551 C-152.56585237 61.56301877 -154.07424862 61.56678607 -155.58263016 61.56500816 C-167.73170584 61.55521566 -178.55884768 62.67806651 -188 71 C-194.18056087 78.26579854 -196.51167456 85.67011635 -196.31640625 95.16015625 C-195.79010961 99.88383107 -194.16377573 103.80184377 -192 108 C-191.68417969 108.6496875 -191.36835938 109.299375 -191.04296875 109.96875 C-187.28635812 116.38453444 -180.05978953 119.48599376 -173.15644497 121.55163437 C-166.48743872 123.20292197 -160.0385498 123.28146611 -153.19410706 123.25828552 C-151.29052009 123.26379908 -151.29052009 123.26379908 -149.34847683 123.26942402 C-145.84623991 123.27935364 -142.34410375 123.27704526 -138.84185946 123.27269709 C-135.05635008 123.27021128 -131.27086654 123.27930176 -127.48536682 123.28707886 C-120.92939872 123.29910349 -114.37345489 123.30423075 -107.81747627 123.30496025 C-98.31913001 123.30628926 -88.82084232 123.32143148 -79.32251679 123.34045542 C-63.88469619 123.37127804 -48.4468741 123.39544974 -33.0090332 123.41333008 C-32.0857725 123.41440276 -31.16251179 123.41547544 -30.21127348 123.41658062 C-19.92175443 123.42838878 -9.63223478 123.43859566 0.6572876 123.44702148 C4.38342287 123.45009525 8.10955812 123.45318408 11.83569336 123.45629883 C12.75509421 123.45706417 13.67449506 123.45782951 14.62175655 123.45861804 C29.99258162 123.47173334 45.36336439 123.49642097 60.7341581 123.53004223 C70.19861592 123.55025207 79.66298302 123.56063273 89.12746257 123.55805302 C95.62419677 123.55701207 102.12085958 123.5667485 108.61756884 123.58469205 C112.35652821 123.5946624 116.0953295 123.59994674 119.83429718 123.59192467 C156.41438085 123.52133194 187.06730442 129.98158987 214.1875 155.75 C237.51098628 180.016993 247.58185318 211.98081648 247.35375977 245.15136719 C246.60053584 278.57199334 233.7078168 308.53200216 210 332 C187.27370521 352.98097476 158.35071183 360.12940745 128.1875 360.25 C126.87845703 360.270625 125.56941406 360.29125 124.22070312 360.3125 C122.33834961 360.32023438 122.33834961 360.32023438 120.41796875 360.328125 C119.28125732 360.3374707 118.1445459 360.34681641 116.97338867 360.35644531 C113.6739123 359.9609091 112.32703895 359.33490403 110 357 C108.29284506 351.87853519 108.81539778 346.48590178 108.8125 341.125 C108.80025391 339.94035156 108.78800781 338.75570313 108.77539062 337.53515625 C108.77345703 336.39175781 108.77152344 335.24835938 108.76953125 334.0703125 C108.76542236 333.02633301 108.76131348 331.98235352 108.75708008 330.90673828 C109.01318803 327.84219434 109.57844917 325.72121217 111 323 C114.40164433 320.73223712 115.67482909 320.73971178 119.671875 320.69140625 C121.37029541 320.65708496 121.37029541 320.65708496 123.10302734 320.62207031 C124.30652832 320.60241211 125.5100293 320.58275391 126.75 320.5625 C150.04586784 319.9192216 171.25286889 315.09751867 187.90625 297.5390625 C203.07315682 279.14635834 208.35140513 256.35654315 207 233 C204.8130932 211.13093203 194.9380261 192.03083919 178.25 177.75 C159.62715561 163.53933721 138.37507513 163.4000584 116.05530691 163.48051262 C112.27884074 163.48966397 108.50244848 163.47550039 104.72599792 163.46424866 C98.19739622 163.44783032 91.66891708 163.44557843 85.14030075 163.45301437 C75.68607213 163.46358487 66.23199188 163.45007256 56.77778299 163.43054982 C41.41468033 163.39928602 26.05160923 163.38421185 10.68847656 163.38085938 C9.31243533 163.38055339 9.31243533 163.38055339 7.90859528 163.38024123 C6.99010596 163.38003786 6.07161665 163.37983449 5.12529433 163.37962496 C-7.89954815 163.37670419 -20.92438088 163.3698966 -33.94921875 163.35839844 C-34.86605515 163.35759314 -35.78289156 163.35678785 -36.72751088 163.35595815 C-52.03976413 163.34218119 -67.35200006 163.32037836 -82.66423738 163.2945286 C-92.09000889 163.27913227 -101.51572359 163.27186227 -110.94150744 163.27532353 C-117.40168245 163.27737094 -123.86182925 163.27267063 -130.32199694 163.26278017 C-134.04225663 163.25737414 -137.7624431 163.25522836 -141.48270226 163.26195335 C-145.52763996 163.26922849 -149.57240693 163.26101135 -153.61734009 163.2515564 C-155.35492692 163.25855122 -155.35492692 163.25855122 -157.12761652 163.26568735 C-179.48978537 163.16419158 -200.15116275 157.74043418 -216.34765625 141.7421875 C-230.11106368 127.51256745 -236.56245029 110.09072942 -236.35180664 90.32348633 C-235.71665226 70.91941007 -228.06507293 54.08217505 -214.47265625 40.46875 C-200.7950492 28.4571372 -183.20299831 21.86557143 -165.04603577 21.87974548 C-164.38260286 21.87889106 -163.71916996 21.87803663 -163.03563303 21.87715632 C-160.83240222 21.87552091 -158.62924908 21.88099083 -156.42602539 21.88647461 C-154.83880617 21.88675693 -153.25158682 21.88659788 -151.66436768 21.8860321 C-147.36945311 21.88574587 -143.07456662 21.89161454 -138.77965856 21.89860606 C-134.28600409 21.9048685 -129.79234895 21.90544569 -125.2986908 21.90663147 C-116.79554398 21.90973627 -108.29241006 21.91793817 -99.78926891 21.92798096 C-90.10610032 21.93916855 -80.4229311 21.94465921 -70.73975766 21.94967639 C-50.82649791 21.9601215 -30.91324977 21.97770444 -11 22 C-11.02320313 20.81921875 -11.04640625 19.6384375 -11.0703125 18.421875 C-11.08907497 16.86458967 -11.10727466 15.30729748 -11.125 13.75 C-11.14175781 12.97269531 -11.15851563 12.19539063 -11.17578125 11.39453125 C-11.23866553 4.03707072 -11.23866553 4.03707072 -9 1 C-5.92122012 -0.53938994 -3.31769345 -0.62146783 0 0 Z " fill="#010202" transform="translate(262,96)"/>
<path d="M0 0 C3.77091045 1.18713848 4.53942589 1.66640723 6.375 5.0625 C6.57251127 9.40774797 6.05988429 13.69493302 5.59423828 18.01367188 C5.3815265 20.00150846 5.20387012 21.99299884 5.02734375 23.984375 C4.89457031 25.20640625 4.76179688 26.4284375 4.625 27.6875 C4.44710937 29.34652344 4.44710937 29.34652344 4.265625 31.0390625 C2.09865787 38.39534566 -5.35791935 41.52129521 -11.625 45.0625 C-11.28243164 46.17584717 -10.93986328 47.28919434 -10.58691406 48.4362793 C-5.59960938 64.64501953 -0.61230469 80.85375977 4.375 97.0625 C5.39315796 97.0310791 5.39315796 97.0310791 6.43188477 96.99902344 C28.85826267 96.39921511 48.52258125 98.72935283 65.75 114.3125 C80.943073 128.79932759 88.99767798 146.65421712 89.75 167.5625 C89.02799145 188.43796448 80.85636758 206.97083654 65.609375 221.265625 C51.36801591 233.95713848 32.8220714 239.81374073 13.9375 238.9375 C-5.52030734 237.63436644 -21.83530834 229.42546908 -35.25 215.4375 C-49.90589859 198.52485242 -54.08685051 178.91675682 -52.625 157.0625 C-50.64738776 141.6493572 -42.83886489 128.41123876 -32.625 117.0625 C-33.553125 117.866875 -34.48125 118.67125 -35.4375 119.5 C-38.51513256 122.14503361 -41.65272573 124.70386305 -44.8125 127.25 C-49.41442829 130.99575558 -53.78954592 134.91801354 -58.12573242 138.9621582 C-62.33036523 142.85868406 -66.73509981 146.45820312 -71.25 149.9921875 C-73.76326075 152.18302335 -75.76995277 154.28884766 -77.625 157.0625 C-77.295 158.0525 -76.965 159.0425 -76.625 160.0625 C-75.9700104 168.41630177 -75.90734404 175.89411367 -80.625 183.0625 C-83.0625 185.875 -83.0625 185.875 -85.625 188.0625 C-86.429375 188.784375 -87.23375 189.50625 -88.0625 190.25 C-94.57580092 194.85696895 -101.93875094 194.81731727 -109.625 194.0625 C-117.89847648 191.7124935 -123.21492295 187.1660389 -127.70703125 179.96484375 C-128.625 178.0625 -128.625 178.0625 -128.625 175.0625 C-130.275 175.3925 -131.925 175.7225 -133.625 176.0625 C-133.95371094 177.69445312 -133.95371094 177.69445312 -134.2890625 179.359375 C-138.4085398 198.85674972 -147.68726113 215.8343498 -164.625 227.0625 C-182.33213864 237.53421515 -201.30733411 241.87526337 -221.625 237.0625 C-241.72699873 231.73763595 -256.93643848 219.67174795 -267.4765625 201.94921875 C-276.55547278 184.70823395 -278.22554811 164.90146758 -273.01171875 146.20703125 C-269.42946842 134.80847633 -263.18440887 125.35718488 -254.625 117.0625 C-253.91601562 116.35609375 -253.20703125 115.6496875 -252.4765625 114.921875 C-237.33276966 100.59814314 -219.48866591 96.51725534 -199.296875 96.78515625 C-183.64647114 97.3083983 -170.18561286 104.11782115 -157.625 113.0625 C-156.9959375 112.42183594 -156.366875 111.78117187 -155.71875 111.12109375 C-151.04680992 106.39990129 -146.36825878 101.83261679 -141.21875 97.6328125 C-139.46804172 95.90784993 -138.66920814 94.26813487 -137.625 92.0625 C-144.82809312 78.18432749 -144.82809312 78.18432749 -155.87255859 67.92333984 C-159.52503553 67.08494693 -162.4651652 67.33029815 -166.19921875 67.765625 C-170.15361707 68.10830946 -171.52608168 67.43124647 -174.625 65.0625 C-175.625 64.0625 -175.625 64.0625 -175.875 60.75 C-175.60908798 56.82779764 -175.35607135 55.75054818 -172.625 53.0625 C-170.1204834 52.56129456 -170.1204834 52.56129456 -167.09960938 52.56079102 C-165.96833618 52.55141006 -164.83706299 52.54202911 -163.67150879 52.53236389 C-161.83864319 52.54921486 -161.83864319 52.54921486 -159.96875 52.56640625 C-158.7149353 52.56495102 -157.46112061 52.56349579 -156.16931152 52.56199646 C-153.51580253 52.56365805 -150.86372146 52.57316987 -148.21044922 52.59594727 C-144.81055198 52.62433316 -141.41155274 52.62159539 -138.01158905 52.60885715 C-134.76808478 52.60022767 -131.52472612 52.61534618 -128.28125 52.62890625 C-126.4483844 52.62450279 -126.4483844 52.62450279 -124.57849121 52.62001038 C-122.88158142 52.63903664 -122.88158142 52.63903664 -121.15039062 52.65844727 C-120.1535022 52.66385025 -119.15661377 52.66925323 -118.1295166 52.67481995 C-115.24148049 53.12186589 -114.34153183 53.7401948 -112.625 56.0625 C-112.06881333 58.767094 -112.19870066 61.33986823 -112.625 64.0625 C-114.43663267 66.73681489 -115.50261077 67.02170359 -118.625 68.0625 C-121.19134861 68.28968496 -123.74178107 68.47858184 -126.3125 68.625 C-127.01439453 68.66818359 -127.71628906 68.71136719 -128.43945312 68.75585938 C-130.16775206 68.8616736 -131.8963511 68.96256581 -133.625 69.0625 C-132.355624 70.98013215 -131.08444055 72.89656793 -129.8125 74.8125 C-129.10480469 75.87984375 -128.39710938 76.9471875 -127.66796875 78.046875 C-126.04465602 80.44304599 -124.37145646 82.75709048 -122.625 85.0625 C-111.52841894 83.50028694 -100.56720762 81.35948309 -89.578125 79.18359375 C-87.67098444 78.80757702 -85.76381846 78.43168916 -83.85662842 78.05592346 C-79.88940395 77.27358123 -75.92259418 76.48917654 -71.95605469 75.70336914 C-66.86246216 74.69453593 -61.76769668 73.69176584 -56.67259598 72.69058132 C-52.74830113 71.91863849 -48.82471413 71.1431465 -44.90132904 70.36659431 C-43.02120279 69.99499117 -41.14083651 69.62460038 -39.26023102 69.25543022 C-36.64833005 68.74223777 -34.03743846 68.22419334 -31.42675781 67.70483398 C-30.64661316 67.5526088 -29.86646851 67.40038361 -29.06268311 67.24354553 C-25.54881222 66.78682879 -25.54881222 66.78682879 -22.625 65.0625 C-23.615 61.7625 -24.605 58.4625 -25.625 55.0625 C-28.54381219 54.80964025 -28.54381219 54.80964025 -30.4375 56.125 C-33.54389609 57.45631261 -35.42457703 57.01581748 -38.625 56.0625 C-41.10905436 53.82685107 -41.56406627 52.42048564 -42.125 49.125 C-41.44156658 44.93897028 -39.80409895 43.85096457 -36.625 41.0625 C-33.9306537 39.25586399 -31.13849511 37.65320965 -28.3125 36.0625 C-26.13243655 34.81563619 -23.95541875 33.56615391 -21.79174805 32.29101562 C-19.625 31.0625 -19.625 31.0625 -17.35864258 30.00585938 C-14.13081597 28.37107572 -12.06552123 27.27780273 -10.7980957 23.78125 C-10.34264095 21.03164329 -10.09632551 18.34481671 -9.9375 15.5625 C-9.26789898 5.92289714 -9.26789898 5.92289714 -6.26953125 1.91015625 C-3.625 0.0625 -3.625 0.0625 0 0 Z M-30.91333008 82.80664062 C-31.84064941 82.99195847 -32.76796875 83.17727631 -33.72338867 83.36820984 C-36.78137026 83.98050156 -39.83793372 84.59958929 -42.89453125 85.21875 C-45.01722434 85.64515412 -47.14000288 86.07113311 -49.26286316 86.4967041 C-54.84500792 87.61694784 -60.42597343 88.74296238 -66.00671387 89.87017822 C-71.7036454 91.01980097 -77.40167208 92.16396829 -83.09960938 93.30859375 C-94.27581883 95.55455464 -105.45079021 97.8066129 -116.625 100.0625 C-115.12852533 105.5762489 -113.58352981 111.07310951 -111.99243164 116.56030273 C-111.45843466 118.42759153 -110.93776683 120.29874678 -110.4309082 122.17358398 C-109.69856209 124.87317069 -108.91890755 127.5550813 -108.12890625 130.23828125 C-107.91287247 131.07587479 -107.69683868 131.91346832 -107.47425842 132.77644348 C-106.09067606 137.33650008 -106.09067606 137.33650008 -102.49923706 140.23007202 C-100.21929722 140.99005197 -97.96965232 141.54485782 -95.625 142.0625 C-94.2328125 142.68125 -94.2328125 142.68125 -92.8125 143.3125 C-90.1934008 144.21047687 -89.21322839 143.93978226 -86.625 143.0625 C-84.33048224 141.28237035 -82.16601916 139.48697094 -80 137.5625 C-79.37826904 137.02004639 -78.75653809 136.47759277 -78.1159668 135.91870117 C-73.71011384 132.06279866 -69.37186168 128.13293781 -65.0390625 124.1953125 C-62.51974074 121.96950396 -59.93227749 119.8563917 -57.3125 117.75 C-52.4999471 113.86058842 -47.9790148 109.7350675 -43.46606445 105.5090332 C-39.24309601 101.57674231 -34.8449703 97.92108437 -30.34765625 94.3046875 C-25.61813935 90.40979123 -21.01256349 86.3397379 -16.625 82.0625 C-16.625 81.7325 -16.625 81.4025 -16.625 81.0625 C-21.54714136 80.7829676 -26.12032046 81.82823941 -30.91333008 82.80664062 Z M-17.75 102.6875 C-21.97100048 106.5678197 -26.24426783 110.36321506 -30.625 114.0625 C-26.91074006 114.0625 -26.22419325 113.16022741 -23.4375 110.8125 C-19.35426216 107.51244056 -15.39549685 105.23090766 -10.625 103.0625 C-10.955 101.4125 -11.285 99.7625 -11.625 98.0625 C-13.81760743 98.0625 -16.29868599 101.34691295 -17.75 102.6875 Z M-130.625 109.0625 C-136.32137192 114.0293638 -141.98282624 119.03417385 -147.625 124.0625 C-146.27673864 127.70210708 -144.58542841 131.06266389 -142.75610352 134.48217773 C-138.89578356 141.77154132 -136.48911359 148.29118375 -135.09765625 156.46484375 C-134.89396879 158.9832316 -134.89396879 158.9832316 -133.625 160.0625 C-131.95882885 160.10313832 -130.29111905 160.105221 -128.625 160.0625 C-128.32207031 159.39863281 -128.01914063 158.73476563 -127.70703125 158.05078125 C-124.1231452 150.4970522 -124.1231452 150.4970522 -120.6875 147.5 C-120.006875 146.695625 -119.32625 145.89125 -118.625 145.0625 C-119.8757582 137.39275632 -122.34991317 129.9812614 -124.625 122.5625 C-124.98078125 121.37140625 -125.3365625 120.1803125 -125.703125 118.953125 C-126.04859375 117.82390625 -126.3940625 116.6946875 -126.75 115.53125 C-127.06195313 114.50451172 -127.37390625 113.47777344 -127.6953125 112.41992188 C-128.38395962 109.90468979 -128.38395962 109.90468979 -130.625 109.0625 Z M-231.9375 144.4375 C-238.02500176 152.1269759 -241.06759273 160.67095524 -240.5 170.5 C-239.1493694 181.27503082 -234.68487613 188.79052843 -226.625 196.0625 C-217.56784879 202.42336113 -208.57557535 204.05142861 -197.625 203.0625 C-187.53944207 200.44672695 -179.61599867 194.52637897 -173.625 186.0625 C-171.94687519 182.42500042 -170.79421752 178.91117435 -169.625 175.0625 C-173.255 175.0625 -176.885 175.0625 -180.625 175.0625 C-181.12 176.238125 -181.615 177.41375 -182.125 178.625 C-185.07150706 184.50756552 -189.58098419 188.47130992 -195.375 191.5 C-203.94226096 192.98279517 -212.24111963 193.14068592 -219.625 188.0625 C-225.86385129 182.33757707 -228.84274097 176.8682018 -229.58203125 168.45703125 C-229.70663804 161.51303495 -227.78396661 156.23104723 -223.40625 150.85546875 C-218.08034276 145.49452264 -212.38730395 142.93481134 -204.875 142.875 C-201.38800994 142.8698796 -198.71050738 143.26993596 -195.4375 144.4375 C-191.78932341 145.45242932 -191.78932341 145.45242932 -189.57421875 143.859375 C-187.80478376 142.3417033 -186.18737536 140.79087775 -184.625 139.0625 C-189.15520208 134.14791714 -195.2932527 132.38078251 -201.8046875 131.90234375 C-213.67436047 131.47710624 -223.88813294 135.6013527 -231.9375 144.4375 Z M15.375 132.0625 C16.035 135.0325 16.695 138.0025 17.375 141.0625 C18.17164063 141.23265625 18.96828125 141.4028125 19.7890625 141.578125 C29.14373571 143.71763663 35.98412617 146.84628868 41.375 155.0625 C44.35198366 162.3687243 44.73713216 171.05440428 42.125 178.5625 C38.76373813 185.28502374 34.67028194 189.39942426 27.5703125 192.1484375 C20.34723209 194.21469767 12.81243238 194.16184485 5.9375 191 C-0.93194597 187.01884381 -4.97811375 182.03221958 -7.15625 174.3828125 C-8.59816539 167.24533133 -7.85671919 160.62133969 -4.625 154.0625 C-2.38631878 150.87461795 -0.15179405 147.82589703 3.375 146.0625 C1.89 141.6075 1.89 141.6075 0.375 137.0625 C-8.94112625 142.5158422 -14.30099445 150.31581483 -17.375 160.5625 C-18.58617201 172.67422013 -15.82105912 182.45608472 -8.09765625 191.9375 C-2.17207395 198.40684162 5.64799419 202.54588865 14.40625 203.3359375 C25.33415759 203.65589876 33.64331637 201.38247322 42.25 194.5 C49.52011711 187.57356116 53.48389911 178.04237549 53.75 168.125 C53.80840274 158.48153936 50.86540948 149.66854053 44.09375 142.5859375 C35.64850309 135.10037774 26.68471702 131.43418239 15.375 132.0625 Z M-177.16796875 151.48828125 C-177.71066406 152.11089844 -178.25335938 152.73351562 -178.8125 153.375 C-179.36292969 153.98988281 -179.91335937 154.60476563 -180.48046875 155.23828125 C-180.85816406 155.84027344 -181.23585938 156.44226563 -181.625 157.0625 C-181.295 158.0525 -180.965 159.0425 -180.625 160.0625 C-176.995 160.0625 -173.365 160.0625 -169.625 160.0625 C-170.945 156.7625 -172.265 153.4625 -173.625 150.0625 C-175.73032738 149.83627795 -175.73032738 149.83627795 -177.16796875 151.48828125 Z " fill="#000000" transform="translate(278.625,266.9375)"/>
<path d="M0 0 C12.85531872 12.37919581 20.40294283 28.91813247 20.98803711 46.74414062 C21.24152895 69.97131016 12.54903011 90.03162163 -2.36328125 107.5390625 C0.62032104 109.13983652 3.69268978 110.3214486 6.8659668 111.49194336 C15.51994235 114.73839797 24.77062687 118.72552831 29.04296875 127.52734375 C30.54276215 132.60888059 30.60273875 137.75750743 28.859375 142.77734375 C23.41311357 152.75892609 12.00353107 157.43439021 1.63671875 160.5390625 C-10.41224368 163.60200991 -22.40242167 165.66631891 -34.8515625 165.7421875 C-35.62859024 165.74920181 -36.40561798 165.75621613 -37.20619202 165.76344299 C-39.69611488 165.78082658 -42.18579996 165.78729375 -44.67578125 165.7890625 C-45.95125824 165.79007462 -45.95125824 165.79007462 -47.25250244 165.79110718 C-69.76302035 165.76270291 -99.26239485 164.6399489 -116.36328125 147.5390625 C-120.11701561 142.56790078 -121.14140978 138.55145109 -120.859375 132.3125 C-119.78556426 126.30930611 -116.64963398 122.44820552 -112.04296875 118.6015625 C-104.75419852 113.55381715 -96.78411708 111.00508325 -88.36328125 108.5390625 C-88.70359375 108.11238281 -89.04390625 107.68570313 -89.39453125 107.24609375 C-104.32028348 87.99346122 -113.57178524 66.30944244 -111.36328125 41.5390625 C-108.79492979 23.13682427 -100.15796144 6.77602028 -85.1953125 -4.578125 C-76.62861671 -10.27350068 -67.46586072 -14.41113877 -57.36328125 -16.4609375 C-55.53796875 -16.8321875 -55.53796875 -16.8321875 -53.67578125 -17.2109375 C-33.73937776 -19.12711534 -15.17102996 -12.94190573 0 0 Z " fill="#010000" transform="translate(454.36328125,23.4609375)"/>
<path d="M0 0 C6.05712816 2.2483992 11.52888175 5.57135021 17.12036133 8.76708984 C19.05612243 9.87136186 20.99755665 10.9651559 22.93945312 12.05859375 C24.18004882 12.76499081 25.42029522 13.47200176 26.66015625 14.1796875 C28.34057007 15.13464111 28.34057007 15.13464111 30.05493164 16.10888672 C32.77597933 17.85614987 34.83124011 19.61829291 37 22 C27.8488925 27.40161403 18.68595076 32.78282209 9.5 38.125 C8.66944092 38.61009033 7.83888184 39.09518066 6.9831543 39.5949707 C6.21527588 40.0405835 5.44739746 40.48619629 4.65625 40.9453125 C3.63241211 41.54110107 3.63241211 41.54110107 2.58789062 42.14892578 C1 43 1 43 0 43 C-0.06058594 42.16855469 -0.12117187 41.33710938 -0.18359375 40.48046875 C-0.26738281 39.39378906 -0.35117187 38.30710938 -0.4375 37.1875 C-0.51871094 36.10855469 -0.59992188 35.02960938 -0.68359375 33.91796875 C-0.90212461 30.94010095 -0.90212461 30.94010095 -2 28 C-5.41430057 26.86189981 -8.03592336 26.86548049 -11.63775635 26.85282898 C-12.31577293 26.84915229 -12.99378952 26.8454756 -13.69235206 26.8416875 C-15.9697137 26.8306541 -18.2470297 26.82680727 -20.52441406 26.82299805 C-22.15567164 26.81673267 -23.78692779 26.8100858 -25.41818237 26.80308533 C-30.78398646 26.78203493 -36.14979084 26.77167562 -41.515625 26.76171875 C-43.36612716 26.75767025 -45.21662918 26.7535533 -47.06713104 26.74936867 C-55.7697714 26.73030748 -64.47240328 26.71608367 -73.17506051 26.7077567 C-83.19633036 26.69800863 -93.21737789 26.67175685 -103.2385695 26.63125581 C-110.99676384 26.60098621 -118.75489491 26.58627722 -126.51314712 26.58297569 C-131.13980837 26.5806357 -135.76623241 26.57181468 -140.3928299 26.54651451 C-144.75627508 26.52304125 -149.11933019 26.51907691 -153.48282242 26.52927589 C-155.07296937 26.52976688 -156.66313678 26.52357763 -158.25322342 26.50971985 C-172.74941382 26.39059333 -185.89307517 28.31956333 -198 37 C-199.051875 37.721875 -200.10375 38.44375 -201.1875 39.1875 C-209.40323455 47.40323455 -214.28005996 57.61884479 -214.51904297 69.24316406 C-214.51275879 70.07041992 -214.50647461 70.89767578 -214.5 71.75 C-214.49250732 73.05662598 -214.49250732 73.05662598 -214.48486328 74.38964844 C-214.1333489 87.50477123 -208.73462447 97.70763852 -199.3125 106.6875 C-188.41397812 115.79733317 -175.7738741 117.30535484 -162.09367371 117.2515564 C-160.17382745 117.2560116 -160.17382745 117.2560116 -158.21519643 117.26055682 C-154.68261144 117.26855662 -151.15013309 117.26430922 -147.61754858 117.25803804 C-143.79928467 117.25348776 -139.98104051 117.26055333 -136.16278076 117.26634216 C-129.5495195 117.27496194 -122.93628499 117.27678633 -116.32301903 117.27439499 C-106.73966431 117.27128988 -97.15636838 117.28296345 -87.57302848 117.29894479 C-71.99441032 117.32489361 -56.41579212 117.34491689 -40.8371582 117.35839844 C-39.90545027 117.35920881 -38.97374234 117.36001918 -38.01380084 117.3608541 C-24.81259213 117.37205868 -11.61138764 117.37735308 1.58982518 117.38024123 C2.518198 117.38044522 3.44657083 117.38064921 4.40307617 117.38085938 C5.3303072 117.38105931 6.25753824 117.38125925 7.21286718 117.38146524 C22.72157072 117.38520915 38.2302106 117.40437152 53.73888224 117.43595374 C63.28627701 117.45478543 72.83350783 117.46088123 82.38091596 117.45013656 C88.93701656 117.44377685 95.49300041 117.45197128 102.04907546 117.47119068 C105.82073259 117.4817843 109.59210556 117.48617691 113.36375999 117.47271919 C146.58748002 117.36355959 174.36958474 122.12539171 199 146 C199.91652344 146.80630859 199.91652344 146.80630859 200.8515625 147.62890625 C212.87667508 158.58328963 220.50181231 175.72354614 225 191 C225.21527344 191.73089844 225.43054688 192.46179688 225.65234375 193.21484375 C228.27549398 202.88412014 228.21033048 212.74532686 228.25 222.6875 C228.2809375 224.59692383 228.2809375 224.59692383 228.3125 226.54492188 C228.34851811 235.4008745 227.23287095 243.43608112 225 252 C224.80647949 252.74580322 224.61295898 253.49160645 224.41357422 254.26000977 C218.0566664 277.05338149 203.50844292 298.77807659 183 311 C162.29558765 322.5553004 143.51294551 325.37958118 120 325 C120 321.7 120 318.4 120 315 C121.38832031 314.95101563 122.77664063 314.90203125 124.20703125 314.8515625 C151.35976687 313.80099562 175.2583264 307.73673939 194.625 287.3125 C214.65296317 264.14081774 218.54179293 236.34717418 216.87548828 206.79150391 C215.26523528 187.46332333 205.85418651 169.17256461 193 155 C192.46117187 154.36835938 191.92234375 153.73671875 191.3671875 153.0859375 C177.90975047 138.27599423 157.13371603 131.86140922 138 129 C136.12859895 128.91421524 134.25471361 128.87347685 132.38134766 128.87250805 C131.28076554 128.8695004 130.18018343 128.86649275 129.04625034 128.86339396 C127.84762836 128.86514433 126.64900637 128.86689471 125.4140625 128.86869812 C124.13249488 128.86658241 122.85092726 128.86446669 121.53052425 128.86228687 C118.72031931 128.85769929 115.91013637 128.85626716 113.0999279 128.85725212 C108.52669792 128.85884804 103.9534897 128.85363588 99.38026428 128.84762573 C92.73911546 128.83951857 86.09797048 128.83457082 79.45681763 128.83133507 C68.9509317 128.82583064 58.44507811 128.80892444 47.93920898 128.78999329 C44.34220892 128.78363667 40.74520876 128.77732818 37.14820862 128.77101612 C36.24927145 128.76943236 35.35033429 128.7678486 34.42415661 128.76621684 C24.19406897 128.74828462 13.96397904 128.73205695 3.73388672 128.71704102 C2.79890842 128.71566514 1.86393012 128.71428927 0.90061915 128.71287171 C-14.23737815 128.69096036 -29.37536708 128.68018976 -44.51337743 128.67267027 C-60.06942309 128.66458723 -75.62539733 128.64125783 -91.18140221 128.6047166 C-100.76776062 128.58274093 -110.35397198 128.57301181 -119.94035429 128.57921693 C-126.51747221 128.58240189 -133.09446495 128.57099333 -139.67154413 128.54832252 C-143.46065831 128.53570907 -147.24949346 128.52941846 -151.03861809 128.54073906 C-155.15872306 128.55288956 -159.2781273 128.53388932 -163.39819336 128.51225281 C-164.57896957 128.52069534 -165.75974579 128.52913788 -166.9763031 128.53783625 C-183.51811697 128.37807566 -197.81184933 122.64460507 -209.78125 111.28125 C-221.35178054 99.38478902 -225.42655154 85.63802549 -225.36352539 69.34643555 C-225.13122897 56.91289878 -221.23347996 48.0314854 -214 38 C-213.52691406 37.34128906 -213.05382812 36.68257812 -212.56640625 36.00390625 C-203.28036846 24.19248708 -188.41206752 18.3620145 -174 16 C-168.31703989 15.60132821 -162.66065133 15.60164822 -156.96630859 15.63110352 C-155.29440058 15.62862992 -153.62249412 15.62478588 -151.95059204 15.61968994 C-148.37830774 15.61141218 -144.80618318 15.61210726 -141.23389816 15.61987495 C-135.58632881 15.63153168 -129.93896198 15.61923752 -124.29141235 15.60325623 C-110.2788816 15.56720201 -96.26635716 15.56083994 -82.25378418 15.56335449 C-71.33216926 15.56506426 -60.41072143 15.55802008 -49.4891535 15.52337593 C-43.87249077 15.50656318 -38.256236 15.50839014 -32.63957477 15.52419865 C-29.1562245 15.52997842 -25.67306973 15.51928852 -22.18975449 15.50395203 C-20.57199703 15.50021402 -18.95420718 15.5033677 -17.33647919 15.51382256 C-15.13286891 15.52711926 -12.93069365 15.51605056 -10.72714233 15.49879456 C-9.4931539 15.49900384 -8.25916546 15.49921312 -6.98778343 15.49942875 C-3.92473595 15.2811615 -3.92473595 15.2811615 -2.11153603 13.14363003 C-0.71488782 10.45015274 -0.49228425 8.27037541 -0.3125 5.25 C-0.21388672 3.77273437 -0.21388672 3.77273437 -0.11328125 2.265625 C-0.07589844 1.51796875 -0.03851563 0.7703125 0 0 Z " fill="#7CE4F8" transform="translate(266,116)"/>
<path d="M0 0 C8.15528214 7.43569843 15.05080664 18.93740796 16.2578125 30.03515625 C16.37789624 32.78507392 16.39366037 35.50957027 16.3515625 38.26171875 C16.33996094 39.23512207 16.32835937 40.20852539 16.31640625 41.21142578 C15.91141672 59.02798722 8.75595162 74.20937691 -3.0234375 87.44921875 C-3.57515625 88.13113281 -4.126875 88.81304687 -4.6953125 89.515625 C-12.05102331 98.46507315 -22.53811937 107.48935872 -33.0234375 112.44921875 C-38.19295212 112.42175785 -41.63342383 110.07301001 -45.6484375 107.07421875 C-46.25526367 106.62796143 -46.86208984 106.1817041 -47.48730469 105.72192383 C-65.11651722 92.52300506 -81.47758119 74.59684281 -85.62890625 52.1796875 C-87.47726467 34.70263512 -86.17944115 19.74352015 -75.0234375 5.44921875 C-54.80882856 -17.1520882 -23.57698224 -18.06961766 0 0 Z " fill="#FB5757" transform="translate(444.0234375,33.55078125)"/>
<path d="M0 0 C6.50294059 3.71435322 10.32577172 8.55579276 14 15 C14.61875 16.03125 15.2375 17.0625 15.875 18.125 C18.73188814 25.46395217 18.06452664 35.16790079 15.375 42.4375 C10.98813766 51.68672375 4.52759462 59.02470716 -5.125 62.875 C-15.08496585 65.74278327 -25.88634815 64.95062569 -35 60 C-43.11133445 54.66089378 -47.68128353 47.19797873 -50.63671875 38.0234375 C-52.20287652 29.30010715 -51.61820893 20.65161695 -47 13 C-35.22870682 -2.77214528 -18.44571319 -9.25167802 0 0 Z " fill="#040202" transform="translate(426,42)"/>
<path d="M0 0 C1.18078125 0.38414062 2.3615625 0.76828125 3.578125 1.1640625 C9.62673579 3.30455262 14.44484231 5.44484231 19 10 C18.62657356 12.48061851 18.26414215 13.73786908 16.4609375 15.52734375 C6.18386786 22.47495076 -5.794669 25.5298901 -18 27 C-18.79664063 27.11085937 -19.59328125 27.22171875 -20.4140625 27.3359375 C-45.59888762 30.29415505 -80.78386269 30.57091404 -101.890625 14.56640625 C-103 13 -103 13 -102.87109375 10.96875 C-100.71230439 6.08969244 -94.7945592 3.77211221 -90.125 1.8125 C-83.22784334 -0.77262549 -76.41493224 -2.6884729 -69 -2 C-66.47127712 -0.51675139 -64.38963467 0.88456844 -62.125 2.6875 C-60.89805671 3.60843837 -59.66889205 4.52642487 -58.4375 5.44140625 C-57.84839844 5.88371582 -57.25929688 6.32602539 -56.65234375 6.78173828 C-54.53675978 8.34154384 -52.37987325 9.77442488 -50.125 11.125 C-49.50882812 11.49882812 -48.89265625 11.87265625 -48.2578125 12.2578125 C-44.15826332 13.60541517 -40.1236365 13.82289554 -36.09472656 12.26171875 C-34.18202388 11.23890479 -32.37763493 10.12454819 -30.5625 8.9375 C-29.90709229 8.53499023 -29.25168457 8.13248047 -28.57641602 7.71777344 C-24.81653666 5.36209677 -21.65663729 2.81842862 -18.4375 -0.25 C-12.62011595 -4.96502797 -6.49599953 -2.18856636 0 0 Z " fill="#383838" transform="translate(451,147)"/>
<path d="M0 0 C5.65150617 3.05613894 10.16162126 7.30236345 14.6875 11.8125 C15.25339844 12.35519531 15.81929688 12.89789063 16.40234375 13.45703125 C26.0374102 23.55212739 29.77586599 36.83123466 29.9375 50.375 C29.9470874 51.08374268 29.9566748 51.79248535 29.96655273 52.52270508 C29.8782786 66.36890497 23.73544309 79.53144711 14.6875 89.8125 C8.10172459 96.23837798 1.23471925 100.49745702 -7.3125 103.8125 C-8.60607422 104.35197266 -8.60607422 104.35197266 -9.92578125 104.90234375 C-21.91136645 109.47295153 -37.81348353 107.68856907 -49.3125 102.8125 C-64.0132331 95.75185593 -74.59186874 83.94580114 -80.3125 68.8125 C-84.94834402 54.97914143 -84.61779371 40.9777768 -78.90625 27.4921875 C-72.94229308 15.59240554 -64.41759087 5.71398357 -52.3125 -0.1875 C-51.3225 -0.1875 -50.3325 -0.1875 -49.3125 -0.1875 C-48.8175 2.7825 -48.8175 2.7825 -48.3125 5.8125 C-49.364375 6.41384766 -49.364375 6.41384766 -50.4375 7.02734375 C-63.25377023 14.70665784 -71.41463844 25.22233928 -75.3125 39.8125 C-75.58566543 42.7556257 -75.59883251 45.67098201 -75.5625 48.625 C-75.55428223 49.4288916 -75.54606445 50.2327832 -75.53759766 51.06103516 C-75.27335169 65.04902305 -70.52462763 76.38788921 -60.73046875 86.625 C-50.57655488 95.81109333 -37.6039973 100.27925026 -24.05859375 100.15625 C-13.51279108 99.18854339 -3.61487255 95.40610684 4.6875 88.8125 C5.55375 88.235 6.42 87.6575 7.3125 87.0625 C16.13735955 78.70210674 21.86657509 66.3844834 23.0234375 54.3046875 C23.19299234 38.60390965 18.63245908 26.28495435 8.125 14.5625 C-1.2843996 5.63092147 -14.06370167 1.6781868 -26.75 1.1875 C-27.57693359 1.14882813 -28.40386719 1.11015625 -29.25585938 1.0703125 C-31.27441073 0.97696908 -33.29342331 0.89369039 -35.3125 0.8125 C-35.8075 -2.1575 -35.8075 -2.1575 -36.3125 -5.1875 C-24.62088765 -9.08470412 -10.80704558 -4.87841556 0 0 Z " fill="#363636" transform="translate(323.3125,384.1875)"/>
<path d="M0 0 C1.8359375 2.1875 1.8359375 2.1875 3 4 C1.75 5.5625 1.75 5.5625 0 7 C-4.65765983 6.3956504 -8.74161924 3.62634019 -12.83203125 1.47265625 C-24.12711667 -3.77795683 -39.37657987 -4.19384709 -51.125 0 C-64.4814282 6.18577141 -74.67694883 16.10403483 -80 30 C-84.53669387 43.34935209 -82.56085109 58.59472158 -76.4921875 71.109375 C-69.18471749 83.4131152 -57.57920134 91.26153055 -44 95.4375 C-30.00963061 98.0514119 -17.13854284 94.90555577 -5.0625 87.75 C6.40165991 79.86306681 12.21014489 69.46608541 15.421875 56.15234375 C16 54 16 54 17 53 C18.99958364 52.95919217 21.00045254 52.95745644 23 53 C22.2815748 67.36850405 15.09137271 79.37543902 4.875 89.25 C-0.78638278 94.02005781 -7.28665375 97.02851887 -14 100 C-14.77085938 100.36351562 -15.54171875 100.72703125 -16.3359375 101.1015625 C-27.067498 105.50109114 -42.17877491 103.89068989 -52.80078125 99.96484375 C-69.50198408 92.78078555 -80.50482541 81.55678302 -87.5 64.625 C-91.59492897 50.81609154 -90.79697193 33.73838095 -84 21 C-75.36197013 5.86073883 -63.62635956 -2.78231169 -47.53125 -8.9453125 C-31.40352557 -13.34942186 -13.78348193 -8.7514171 0 0 Z " fill="#363636" transform="translate(107,388)"/>
<path d="M0 0 C4.82947393 3.062384 8.07602686 6.75472407 10.25 12.0625 C11.40365293 18.34946129 10.67750212 23.81602268 7.44921875 29.34375 C4.09564309 34.15017766 1.03563711 36.88394429 -4.75 38.0625 C-11.9677551 38.77226412 -16.9053803 38.50441097 -22.75 34.0625 C-27.32236017 29.50233279 -30.03189586 25.32978983 -30.125 18.8125 C-29.99553574 13.41096342 -29.12911002 9.34957033 -25.75 5.0625 C-18.27374023 -1.82709149 -9.59354694 -4.73173247 0 0 Z " fill="#F1F1F1" transform="translate(418.75,53.9375)"/>
<path d="M0 0 C4.32777286 2.20471448 7.26335482 4.40299806 9 9 C9.19923841 13.55757856 8.59308006 17.00447276 6.25 20.9375 C2.9767995 23.93793379 0.43117578 24.81729671 -3.9375 25.375 C-8.82725065 24.77625502 -11.76569144 22.48117027 -14.875 18.75 C-16.37988878 15.07138298 -16.92618982 11.85790879 -16 8 C-11.90872108 1.48147915 -7.82362951 -1.04897826 0 0 Z " fill="#EEEEEE" transform="translate(179,422)"/>
<path d="M0 0 C3.71168084 0.96768822 5.55692692 2.80821076 8.1875 5.5703125 C9.94081113 9.07693476 9.14181841 12.86192081 8.1875 16.5703125 C5.25109651 20.18434756 3.10618689 22.3522799 -1.5625 22.8828125 C-5.69799396 22.48516885 -7.65072672 21.22907639 -10.8125 18.5703125 C-12.91774212 14.9339852 -13.47580626 11.71597665 -12.8125 7.5703125 C-9.81860713 1.92403545 -6.43947202 -0.50036438 0 0 Z " fill="#EEEEEE" transform="translate(75.8125,423.4296875)"/>
<path d="M0 0 C3.09891358 0.92129863 4.72788114 1.67158069 6.8125 4.1875 C8.32924884 7.7797999 8.47559125 10.1273284 8 14 C5.74665796 18.33976986 3.54633071 21.09688482 -1 23 C-4.58057666 23.59676278 -6.86281507 23.73781641 -9.96875 21.72265625 C-14.56459436 17.87081129 -14.56459436 17.87081129 -16 15 C-16.09499503 13.50243129 -16.12987198 12.00057068 -16.125 10.5 C-16.12757813 9.7059375 -16.13015625 8.911875 -16.1328125 8.09375 C-16 6 -16 6 -15 4 C-14.34 4 -13.68 4 -13 4 C-12.80664062 4.69867188 -12.61328125 5.39734375 -12.4140625 6.1171875 C-12.15367187 7.02726562 -11.89328125 7.93734375 -11.625 8.875 C-11.36976563 9.77992188 -11.11453125 10.68484375 -10.8515625 11.6171875 C-10.1395685 14.14569726 -10.1395685 14.14569726 -8 16 C-4.63534359 16.30587786 -2.06709225 16.53354612 1 15 C2.64616696 11.70766608 1.68151575 8.46830785 1 5 C0.814375 4.01 0.62875 3.02 0.4375 2 C0.2209375 1.01 0.2209375 1.01 0 0 Z " fill="#E2E2E2" transform="translate(301,424)"/>
<path d="M0 0 C5.18626646 4.22584675 7.9232836 10.7698508 10 17 C10.12781786 19.67394964 10.04391871 22.32095857 10 25 C8.02 25 6.04 25 4 25 C3.76216797 23.96552734 3.76216797 23.96552734 3.51953125 22.91015625 C2.03494873 16.93081562 0.22044688 12.10907305 -3.20703125 6.97265625 C-4 5 -4 5 -3.26171875 2.80859375 C-2 1 -2 1 0 0 Z " fill="#363636" transform="translate(119,402)"/>
</svg>
